<svg width="700" height="350" viewBox="0 0 700 350" fill="none" xmlns="http://www.w3.org/2000/svg">
<path d="M75 225C75 250 100.001 250 100.001 250H287C287 250 312 250 312 275C312 300 287 300 287 300H230.001C230.001 300 205.001 300 205 325C204.999 350 230.001 350 230.001 350H420.5C420.5 350 449 350 449 325C449 300 420.5 300 420.5 300H356C356 300 325 300 325 275C325 250 350 250 350 250H600C600 250 625 250 625 225C625 200 600 200 600 200H475C475 200 450 200 450 175C450 150 475 150 475 150C475 150 500 150 500 125C500 100 475 100 475 100H425C425 100 400 100 400 75C400 50 425 50 425 50H550C550 50 575 50 575 25C575 0 550 0 550 0H275C275 0 250 0 250 25C250 50 275 50 275 50H350C350 50 375 50 375 75C375 100 350 100 350 100H175C175 100 150 100 150 125C150 150 175 150 175 150H225C225 150 250 150 250 175C250 200 225 200 225 200H100.001C100.001 200 75 200 75 225Z" fill="white"/>
<circle cx="675" cy="225" r="25" fill="white"/>
<path d="M100 100C100 100 125 100 125 125C125 150 96 150 96 150H25C25 150 0 150 0 125C0 100 25 100 25 100H100Z" fill="white"/>
<path d="M549 299C549 299 574 299 574 324C574 349 545 349 545 349H499C499 349 474 349 474 324C474 299 499 299 499 299H549Z" fill="white"/>
</svg>
