<svg width="902" height="462" viewBox="0 0 902 462" fill="none" xmlns="http://www.w3.org/2000/svg">
<path d="M0 350C-5.52665e-05 362.5 14 362.5 14 362.5H489C489 362.5 501.5 362.5 501.5 350C501.5 337.5 489 337.5 489 337.5H389C389 337.5 375.5 337.5 375.5 325C375.5 312.5 389 312.5 389 312.5H564C564 312.5 576.5 312.5 576.5 300C576.5 287.5 564 287.5 564 287.5H489C489 287.5 476.5 287.5 476.5 275C476.5 262.5 489 262.5 489 262.5H677C677 262.5 692 262.5 692 249.5C692 236.5 677 237.5 677 237.5H589C589 237.5 576.5 237.5 576.5 225C576.5 212.5 589 212.5 589 212.5H889C889 212.5 901.5 212.5 901.5 200C901.5 187.5 889 187.5 889 187.5H539C539 187.5 526.5 187.5 526.5 175C526.5 162.5 539 162.5 539 162.5H839C839 162.5 851.5 162.5 851.5 150C851.5 137.5 839 137.5 839 137.5H764C764 137.5 751.5 137.5 751.5 125C751.5 112.5 764 112.5 764 112.5C764 112.5 776.5 112.5 776.5 100C776.5 87.5 764 87.5 764 87.5H514C514 87.5 501.5 87.5 501.5 100C501.5 112.5 514 112.5 514 112.5H589C589 112.5 600 112.5 600 125C600 137.5 589 137.5 589 137.5H414C414 137.5 401.5 137.5 401.5 150C401.5 162.5 414 162.5 414 162.5H464C464 162.5 476.5 162.5 476.5 175C476.5 187.5 464 187.5 464 187.5H239C239 187.5 226.5 187.5 226.5 200C226.5 212.5 239 212.5 239 212.5H289C289 212.5 301.5 212.5 301.5 225C301.5 237.5 289 237.5 289 237.5H164C164 237.5 151.5 237.5 151.5 250C151.5 262.5 164 262.5 164 262.5H339C339 262.5 351.5 262.5 351.5 275C351.5 287.5 339 287.5 339 287.5H189C189 287.5 176.5 287.5 176.5 300C176.5 312.5 189 312.5 189 312.5H289C289 312.5 301.5 312.5 301.5 325C301.5 337.5 289 337.5 289 337.5H14C14 337.5 5.52665e-05 337.5 0 350Z" fill="#ECECEC"/>
<path d="M551 50C551 62.5 564 62.5 564 62.5H669.5C669.5 62.5 681 62.5 681 50C681 37.5 669.5 37.5 669.5 37.5H564C564 37.5 551 37.5 551 50Z" fill="#ECECEC"/>
<circle cx="640.5" cy="12.5" r="12.5" fill="#ECECEC"/>
<rect x="601" y="288" width="75" height="25" rx="12.5" fill="#ECECEC"/>
<path d="M301 399.5C301 387 313.5 387 313.5 387H403.5C403.5 387 416 387 416 399.5C416 412 403.5 412 403.5 412H383.5C383.5 412 371 412 371 424.5C371 437 383.5 437 383.5 437C383.5 437 396 437 396 449.5C396 462 383.5 462 383.5 462H348.5C348.5 462 336 462 336 449.5C336 437 348.5 437 348.5 437C348.5 437 361 437 361 424.5C361 412 348.5 412 348.5 412H313.5C313.5 412 301 412 301 399.5Z" fill="#ECECEC"/>
</svg>
