<svg width="530" height="273" viewBox="0 0 530 273" fill="none" xmlns="http://www.w3.org/2000/svg">
<path d="M-95 125C-95 100 -69.9995 100 -69.9995 100H117C117 100 142 100 142 75C142 50 117 50 117 50H60.0006C60.0006 50 35.0005 50 35 25C34.9995 0 60.0006 0 60.0006 0H250.5C250.5 0 279 0 279 25C279 50 250.5 50 250.5 50H186C186 50 155 50 155 75C155 100 180 100 180 100H430C430 100 455 100 455 125C455 150 430 150 430 150H305C305 150 280 150 280 175C280 200 305 200 305 200C305 200 330 200 330 225C330 250 305 250 305 250H255H5C5 250 -20 250 -20 225C-20 200 5 200 5 200H55C55 200 80 200 80 175C80 150 55 150 55 150H-69.9995C-69.9995 150 -95 150 -95 125Z" fill="white"/>
<circle r="25" transform="matrix(1 0 0 -1 505 125)" fill="white"/>
<path d="M379 51C379 51 404 51 404 26C404 1 375 1 375 1H329C329 1 304 1 304 26C304 51 329 51 329 51H379Z" fill="white"/>
</svg>
