<svg width="64" height="68" viewBox="0 0 64 68" fill="none" xmlns="http://www.w3.org/2000/svg">
<path d="M22.147 32.2319C31.2418 22.73 34.2746 11.4251 47.8738 11.1812C52.7188 21.163 42.71 30.7601 36.8918 42.5562L39.9219 49.5611L37.5452 56.4423C37.5452 56.4423 31.812 46.324 30.6648 47.9623C29.5177 49.6006 28.9441 50.4198 27.4286 49.969C25.9131 49.5182 19.3599 44.9296 18.4179 43.6596C17.476 42.3897 18.0496 41.5705 19.1967 39.9322C20.3439 38.2939 12.1712 37.2915 8.87488 36.3671L14.5282 31.7802L22.147 32.2319Z" fill="#FF9A02"/>
<path d="M43.9053 21.2511L43.893 21.1811C43.5573 19.2775 41.742 18.0064 39.8384 18.3421L39.7684 18.3544C37.8648 18.6901 36.5937 20.5054 36.9294 22.409L36.9417 22.479C37.2774 24.3826 39.0927 25.6537 40.9963 25.318L41.0663 25.3057C42.9699 24.97 44.241 23.1547 43.9053 21.2511Z" fill="#99D4FF"/>
<path d="M16.5687 45.4825C16.5697 45.4712 16.5539 45.4675 16.5493 45.4779C14.5264 50.1105 14.6096 52.6103 15.18 57.8727C20.3202 56.6089 22.6977 55.8321 26.359 52.3467C26.3672 52.3389 26.3583 52.3252 26.348 52.3301C22.7352 54.0386 20.4838 55.5015 16.3271 56.2344C15.5942 52.0778 16.1989 49.4618 16.5687 45.4825Z" fill="#FF9A02"/>
<path d="M18.2211 46.6158C18.2192 46.6051 18.204 46.605 18.2015 46.6156C17.5974 49.2112 17.5597 51.0085 18.0479 53.777C20.8163 53.2888 22.4923 52.6387 24.7248 51.1832C24.7339 51.1773 24.7287 51.163 24.718 51.165C22.6468 51.541 20.6989 52.586 19.195 52.1387C18.2603 50.8785 18.5761 48.6907 18.2211 46.6158Z" fill="#99D4FF"/>
</svg>
